<?xml version="1.0" encoding="utf-8"?>
<svg version="1.1" xmlns:xlink="http://www.w3.org/1999/xlink" width="5px" height="5px" xmlns="http://www.w3.org/2000/svg">
  <g transform="matrix(1 0 0 1 -148 -125 )">
    <path d="M 3.2671875 1.002640625  L 3.256015625 1.003875  C 2.82155975367206 0.575368263238463  2.12345587132794 0.575368263238463  1.689 1.003875  C 1.5423501821383 1.14939895294722  1.43966248397308 1.33329240556511  1.392703125 1.534484375  C 1.392703125 1.556796875  1.38278125 1.577875  1.3790625 1.6001875  C 1.37534375 1.6225  1.3790625 1.6448125  1.370390625 1.667125  C 1.24326067303907 2.34187581018624  0.913762969052716 2.96194841627555  0.425703124999998 3.44490625  C 0.389765624999999 3.480859375  0.351328124999998 3.5168125  0.314140625 3.55028125  C 0.264162395256768 3.59924911441743  0.235998405971021 3.66627308579167  0.235998405971021 3.7362421875  C 0.235998405971021 3.80621128920833  0.264162395256768 3.87323526058257  0.314140625 3.922203125  C 0.410641702076649 4.01712376594922  0.562803130446433 4.0251033226106  0.668703124999997 3.940796875  L 0.688546874999997 3.922203125  C 0.700537975533784 3.91129304717478  0.71096463079812 3.89877895764925  0.719531249999996 3.885015625  L 0.793906249999996 3.809390625  C 1.27148545680399 3.33363583460681  1.87934279280935 3.01008141362491  2.540703125 2.87959375  C 2.57641322454423 2.87778036333223  2.61200062014568 2.87405628294831  2.6473125 2.8684375  C 2.68916872293174 2.86252918589694  2.73058375100165 2.85383276079428  2.77128125 2.84240625  C 3.25366523252571 2.71530482401007  3.58982455525009 2.27909910583374  3.58982455525009 1.78025135442452  C 3.58982455525009 1.48848464994231  3.47374215124511 1.20870611433148  3.2671875 1.002640625  Z " fill-rule="nonzero" fill="#0080ed" stroke="none" transform="matrix(1 0 0 1 148 125 )" />
  </g>
</svg>