<?xml version="1.0" encoding="utf-8"?>
<svg version="1.1" xmlns:xlink="http://www.w3.org/1999/xlink" width="5px" height="5px" xmlns="http://www.w3.org/2000/svg">
  <g transform="matrix(1 0 0 1 -145 -127 )">
    <path d="M 2.622359375 1.80815625  L 2.618640625 1.80690625  C 2.59698154919138 1.80158270617544  2.57504782840859 1.79744633505041  2.5529375 1.794515625  C 2.53082230433133 1.78999198579175  2.50847651560989 1.78667975987249  2.486 1.78459375  C 1.80804874342184 1.66014517721078  1.18381873498103 1.33290551335773  0.695812499999997 0.846125000000001  C 0.659014745542674 0.810583620184092  0.623457039567706 0.773780378267746  0.589203124999999 0.735781249999999  C 0.485979189075834 0.634342353839406  0.320505185924162 0.634342353839404  0.217281249999999 0.735781250000001  C 0.121606689258366 0.830959847516782  0.113570212370679 0.983132901054805  0.198687499999998 1.087859375  L 0.217281249999999 1.107703125  C 0.2287922779692 1.11904918225854  0.241231401127409 1.12941337604961  0.254468749999999 1.1386875  L 0.331343749999998 1.21184375  C 0.808819387103471 1.68456524956039  1.13466772539751 2.28879597953556  1.267328125 2.94746875  C 1.26914686806196 2.9835937725439  1.27287604074565 3.0195972397265  1.2785 3.055328125  C 1.2859375 3.093765625  1.293375 3.1321875  1.30328125 3.170625  C 1.35382111040644 3.35592006183868  1.45265139280003 3.52447451803507  1.589671875 3.6590625  C 2.02412961668521 4.08757951089072  2.72224538331479 4.08757951089072  3.156703125 3.6590625  C 3.36506749408433 3.45358244906507  3.4823709135409 3.17315492795866  3.4823709135409 2.880515625  C 3.4823709135409 2.58787632204134  3.36506749408433 2.30744880093493  3.156703125 2.10196875  C 3.00964510857026 1.95588749497528  2.82449028789032 1.85407887318261  2.622359375 1.80815625  Z " fill-rule="nonzero" fill="#fa6a07" stroke="none" transform="matrix(1 0 0 1 145 127 )" />
  </g>
</svg>