<?xml version="1.0" encoding="utf-8"?>
<svg version="1.1" xmlns:xlink="http://www.w3.org/1999/xlink" width="5px" height="5px" xmlns="http://www.w3.org/2000/svg">
  <g transform="matrix(1 0 0 1 -146 -122 )">
    <path d="M 0.557437500000001 0.812812500000002  L 0.567343749999997 0.814046874999999  C 0.360774097826583 1.02051886149193  0.244716261935858 1.30061359532741  0.244716261935858 1.59267814710487  C 0.244716261935858 2.10670018475373  0.600427260799929 2.5523062772644  1.101671875 2.666203125  L 1.168625 2.67859375  L 1.2355625 2.68728125  C 1.91341112278569 2.81202722246417  2.5375575555303 3.13922307348804  3.02575 3.62575  L 3.132359375 3.73609375  C 3.23585104618524 3.83687609395904  3.40078957881476 3.83687609395904  3.50428125 3.73609375  C 3.60055002296653 3.64150911592242  3.60809573238334 3.48886825173761  3.521625 3.38525  C 3.51653124274833 3.37768539026973  3.51072337761078 3.37062700281877  3.50428125 3.364171875  C 3.4927561705788 3.35321323034622  3.48031500612054 3.34326029877962  3.46709375 3.334421875  L 3.39021875 3.260046875  C 2.91182016966177 2.78801447773272  2.58580549073446 2.18348538893656  2.45421875 1.524421875  C 2.45421875 1.488453125  2.45421875 1.4525  2.4430625 1.417796875  C 2.43190625 1.38309375  2.426953125 1.3396875  2.41703125 1.30125  C 2.28118522732617 0.820776536590267  1.84266303182238 0.489048902574933  1.34335461919823 0.489048902574933  C 1.048925868404 0.489048902574933  0.766431362492749 0.605424325952845  0.557437500000001 0.812812500000002  Z " fill-rule="nonzero" fill="#33bd00" stroke="none" transform="matrix(1 0 0 1 146 122 )" />
  </g>
</svg>