<?xml version="1.0" encoding="utf-8"?>
<svg version="1.1" xmlns:xlink="http://www.w3.org/1999/xlink" width="5px" height="5px" xmlns="http://www.w3.org/2000/svg">
  <g transform="matrix(1 0 0 1 -143 -124 )">
    <path d="M 2.33878125 2.872921875  L 2.343734375 2.8716875  C 2.343734375 2.849375  2.351171875 2.8270625  2.35365625 2.804734375  C 2.48006537209284 2.130005150424  2.80917428670335 1.50984905606096  3.29709375 1.02696875  L 3.40865625 0.921593749999998  C 3.45832463423666 0.872459533037937  3.48627338673717 0.805497822835322  3.48627338673717 0.735632812499997  C 3.48627338673717 0.665767802164671  3.45832463423666 0.598806091962059  3.40865625 0.549671874999998  C 3.31248674890181 0.454764520729178  3.16035379397514 0.447289741279175  3.05534375 0.5323125  L 3.034265625 0.54965625  C 3.02360114796069 0.561440352355989  3.01366600273442 0.573864501927286  3.004515625 0.586859375  L 2.928890625 0.662484375  C 2.45180841376446 1.13890297887951  1.84374185943258 1.46257165920786  1.182109375 1.59228125  C 1.147390625 1.59228125  1.1114375 1.59228125  1.075484375 1.6046875  C 1.03604052790155 1.60981893947301  0.997071821777014 1.61810592900285  0.958953124999999 1.62946875  C 0.476575219734663 1.75657457793279  0.140422180138696 2.19277739238402  0.140422180138696 2.69162038870917  C 0.140422180138696 2.98338869132657  0.256505852246386 3.26316862413143  0.463062500000003 3.469234375  C 0.897520241685214 3.89775138589071  1.59563600831479 3.89775138589071  2.03009375 3.469234375  C 2.1772251316651 3.32408513383751  2.27999127270684 3.14004691964622  2.326375 2.938640625  C 2.326375 2.9163125  2.3350625 2.89525  2.33878125 2.872921875  Z " fill-rule="nonzero" fill="#fcc935" stroke="none" transform="matrix(1 0 0 1 143 124 )" />
  </g>
</svg>