<?xml version="1.0" encoding="utf-8"?>
<svg version="1.1" xmlns:xlink="http://www.w3.org/1999/xlink" width="16px" height="19px" xmlns="http://www.w3.org/2000/svg">
  <g transform="matrix(1 0 0 1 -28 -119 )">
    <path d="M 12.4481818164062 5.3  C 12.4481818164062 2.7890908984375  10.3718181835937 0.75454544921875  7.80818181640625 0.75454544921875  C 5.24818181640625 0.75454544921875  3.1690908984375 2.7890908984375  3.16909091796875 5.3  C 3.1690909375 7.8109091015625  5.247272734375 9.84545455078125  7.80818181640625 9.84545455078125  C 10.37 9.84545455078125  12.4481818164062 7.8109091015625  12.4481818164062 5.3  Z M 12.4481818164062 5.3  C 12.4481818164062 2.7890908984375  10.3718181835937 0.75454544921875  7.80818181640625 0.75454544921875  C 5.24818181640625 0.75454544921875  3.1690908984375 2.7890908984375  3.16909091796875 5.3  C 3.1690909375 7.8109091015625  5.247272734375 9.84545455078125  7.80818181640625 9.84545455078125  C 10.37 9.84545455078125  12.4481818164062 7.8109091015625  12.4481818164062 5.3  Z M 9.9363636328125 11.3609090820312  L 6.07 11.3609090820312  C 2.76 11.3609090820312  0.0763636328124999 13.99  0.0763636328124999 17.2318181835937  L 0.0763636328124999 17.6090909179688  C 0.0763636328124999 18.9354545507813  2.76 18.9363636523438  6.07 18.9363636328125  L 9.9363636328125 18.9363636328125  C 13.2454545507813 18.9363636328125  15.9281818164063 18.8872727148438  15.9281818164063 17.6090909179688  L 15.9281818164063 17.2318181835937  C 15.9281818164063 13.99  13.2454545507813 11.3609091015625  9.9363636328125 11.3609090820312  Z " fill-rule="nonzero" fill="#000000" stroke="none" transform="matrix(1 0 0 1 28 119 )" />
  </g>
</svg>