<?xml version="1.0" encoding="utf-8"?>
<svg version="1.1" xmlns:xlink="http://www.w3.org/1999/xlink" width="13px" height="13px" xmlns="http://www.w3.org/2000/svg">
  <g transform="matrix(1 0 0 1 -31 -227 )">
    <path d="M 12.9999999995346 6.00106  C 12.9999999995346 4.39812  12.3554199995577 2.89114  11.1849399995996 1.75768  C 10.0144599996415 0.62418  8.4582399996972 0  6.80293999975646 0  C 5.14775999981571 0  3.59135999987143 0.62428  2.42097999991333 1.75768  C 2.41559999991352 1.7629  2.39891999991412 1.7791  2.37497999991498 1.80242  L 2.56405999990821 1.11914  C 2.62229999990612 0.9087  2.49329999991074 0.69236  2.27599999991852 0.63596  C 2.0585999999263 0.57952  1.8352999999343 0.70446  1.77705999993638 0.91492  L 1.19455999995724 3.02004  C 1.15687999995859 3.1562  1.19707999995715 3.30144  1.29997999995346 3.4011  C 1.37739999995069 3.47606  1.48143999994697 3.51664  1.58805999994315 3.51664  C 1.62321999994189 3.51664  1.65863999994062 3.51222  1.69349999993937 3.5032  L 3.86731999986155 2.93912  C 4.08463999985377 2.88272  4.21361999984916 2.6664  4.15537999985124 2.45594  C 4.09715999985333 2.2455  3.87373999986132 2.1206  3.6564399998691 2.17698  L 2.95141999989434 2.35992  C 2.97001999989368 2.34182  2.98575999989311 2.32654  2.99707999989271 2.31554  C 4.01367999985631 1.3311  5.36527999980793 0.78892  6.80291999975646 0.78896  C 8.24055999970499 0.78896  9.59219999965661 1.3311  10.6087599996202 2.31554  C 12.7073199995451 4.34774  12.7073199995451 7.65436  10.6087799996202 9.68654  C 8.51023999969534 11.71866  5.09565999981758 11.71872  2.99707999989271 9.68654  C 2.46487999991176 9.17114  2.05777999992633 8.56844  1.78709999993602 7.89524  C 1.70547999993894 7.69224  1.4693199999474 7.59174  1.2596799999549 7.67072  C 1.05001999996241 7.74976  0.946219999966125 7.97844  1.0278599999632 8.18146  C 1.33973999995204 8.9572  1.80841999993526 9.65132  2.42097999991333 10.24444  C 3.59141999987143 11.37792  5.14765999981572 12.0021  6.80293999975646 12.0021  C 8.4582599996972 12.0021  10.0144799996415 11.37788  11.1849399995996 10.24444  C 12.3554199995577 9.111  13.0000199995346 7.604  12.9999999995346 6.00106  Z " fill-rule="nonzero" fill="#1296db" stroke="none" transform="matrix(1 0 0 1 31 227 )" />
  </g>
</svg>