<?xml version="1.0" encoding="utf-8"?>
<svg version="1.1" xmlns:xlink="http://www.w3.org/1999/xlink" width="4px" height="5px" xmlns="http://www.w3.org/2000/svg">
  <g transform="matrix(1 0 0 1 -34 -189 )">
    <path d="M 3.091796875 1.576171875  C 3.095703125 1.5546875  3.095703125 1.533203125  3.095703125 1.51171875  C 3.095703125 0.91015625  2.609375 0.423828124999998  2.0078125 0.423828124999998  L 1.962890625 0.423828124999998  C 1.375 0.423828124999998  0.91796875 0.923828125  0.91796875 1.51171875  C 0.91796875 1.533203125  0.91796875 1.5546875  0.919921875 1.576171875  C 0.919921875 1.58984375  0.921875 1.603515625  0.923828125 1.6171875  L 0.923828125 1.626953125  C 0.958984375 1.986328125  1.15625 2.28125  1.4609375 2.46875  L 1.4609375 4.263671875  C 1.4609375 4.55859375  1.7109375 4.80859375  2.005859375 4.80859375  C 2.30078125 4.80859375  2.55078125 4.55859375  2.55078125 4.263671875  L 2.55078125 2.46875  C 2.857421875 2.283203125  3.0546875 1.98828125  3.087890625 1.626953125  L 3.087890625 1.6171875  C 3.08984375 1.603515625  3.08984375 1.58984375  3.091796875 1.576171875  Z " fill-rule="nonzero" fill="#000000" stroke="none" transform="matrix(1 0 0 1 34 189 )" />
  </g>
</svg>