<?xml version="1.0" encoding="utf-8"?>
<svg version="1.1" xmlns:xlink="http://www.w3.org/1999/xlink" width="15px" height="18px" xmlns="http://www.w3.org/2000/svg">
  <g transform="matrix(1 0 0 1 -29 -180 )">
    <path d="M 14.0078125 9.01953125  C 13.978515625 7.65234375  12.890625 6.564453125  11.595703125 6.564453125  L 11.419921875 6.564453125  L 11.419921875 4.931640625  C 11.43359375 2.26953125  9.5078125 0.26953125  6.962890625 0.26953125  C 4.462890625 0.26953125  2.55078125 2.26953125  2.55078125 4.931640625  L 2.55078125 6.564453125  L 2.41796875 6.564453125  C 1.08203125 6.564453125  0.0078125 7.6953125  0.0078125 9.01953125  L 0.0078125 15.314453125  C 0.0078125 16.6953125  1.095703125 17.76953125  2.419921875 17.76953125  L 11.595703125 17.76953125  C 12.93359375 17.76953125  14.0078125 16.63671875  14.0078125 15.314453125  L 14.0078125 9.01953125  Z M 3.2578125 4.90625  L 3.2578125 4.90234375  L 3.302734375 4.90234375  C 3.302734375 2.607421875  4.84765625 0.990234375000001  6.96484375 0.990234375000001  C 9.126953125 0.990234375000001  10.669921875 2.65234375  10.669921875 4.90234375  L 10.669921875 6.53515625  L 3.3046875 6.53515625  L 3.3046875 4.90625  L 3.2578125 4.90625  Z M 13.2734375 9.01953125  L 13.2734375 15.314453125  C 13.2734375 16.26953125  12.5234375 17.064453125  11.611328125 17.064453125  L 2.419921875 17.064453125  C 1.5078125 17.064453125  0.7578125 16.26953125  0.7578125 15.314453125  L 0.7578125 9.01953125  C 0.7578125 8.064453125  1.5078125 7.26953125  2.419921875 7.26953125  L 11.611328125 7.26953125  C 12.5234375 7.26953125  13.2734375 8.064453125  13.2734375 9.01953125  Z " fill-rule="nonzero" fill="#000000" stroke="none" transform="matrix(1 0 0 1 29 180 )" />
  </g>
</svg>