<?xml version="1.0" encoding="utf-8"?>
<svg version="1.1" xmlns:xlink="http://www.w3.org/1999/xlink" width="18px" height="16px" xmlns="http://www.w3.org/2000/svg">
  <g transform="matrix(1 0 0 1 -132 -115 )">
    <path d="M 15.727734375 4.206421875  L 15.7190625 4.2039375  C 15.4029629803287 3.56400498041366  14.9874624123443 2.9782001764269  14.488015625 2.4683125  C 13.1246408319273 1.11120420815158  11.3352717473943 0.265340706592516  9.42121875 0.07315625  C 9.07297801873886 0.0340088061426782  8.72284008029566 0.0141347589245657  8.37240625 0.013625  C 8.03691812631817 0.0141829696520541  7.70170350625766 0.0328089018148117  7.36821875 0.069421875  C 5.44607259514393 0.252319869967707  3.64612124808215 1.09361083720617  2.27290625 2.450953125  C 1.77046053687667 2.96027639694845  1.3520178727794 3.54610245537809  1.0331875 4.186578125  C 0.615991986746174 5.02068606900524  0.398674816731901 5.94045381574544  0.3984375 6.873078125  C 0.404684466433287 8.09310332309177  0.774596143687939 9.28355337986312  1.460890625 10.292265625  C 1.8796963080512 10.8989268395785  2.36864093599305 11.4540374844478  2.917578125 11.946078125  L 2.6783125 13.814359375  C 2.669625 13.840390625  2.65846875 13.865171875  2.652265625 13.89121875  C 2.6460625 13.917265625  2.652265625 13.942046875  2.64359375 13.96684375  C 2.634921875 13.991640625  2.64359375 14.00403125  2.64359375 14.023875  L 2.64359375 14.084609375  C 2.67536309383704 14.3963317700677  2.93772552857667 14.6335363480063  3.2510625 14.633828125  C 3.35777596823969 14.6327449173029  3.46240229461457 14.6041287559173  3.5548125 14.55075  L 3.563484375 14.55075  L 3.601921875 14.5284375  L 4.173421875 14.243296875  L 5.8780625 13.394078125  C 6.36496633444825 13.5308933385108  6.8626655471625 13.6258739047795  7.365734375 13.677984375  C 7.69917420760515 13.7151367030556  8.03441864490406 13.7337590756385  8.369921875 13.733765625  C 8.72037888111616 13.7328739697277  9.07051814688481 13.7125929753694  9.418734375 13.673015625  C 10.1037952975125 13.5948309709786  10.7776457783186 13.4384313522423  11.427109375 13.206875  C 11.3571383229527 13.1829156092352  11.2894986963994 13.152623432865  11.22503125 13.116375  C 10.8477469712124 12.9031972030494  10.6315050966349 12.4877271597848  10.67334375 12.05640625  C 10.2094630487106 12.2029472444751  9.7323817439257 12.3038426270918  9.248890625 12.35765625  C 8.95714261073929 12.3918621382958  8.66366787454735 12.4092502581757  8.369921875 12.409734375  C 8.08871674182177 12.4092525358742  7.80773271920124 12.3939396003132  7.528140625 12.363859375  L 7.354578125 12.3403125  C 6.97356275954264 12.2907890605076  6.59684855789594 12.2124605869781  6.227671875 12.106  C 6.15186523737183 12.0821064614443  6.07284234908302 12.0699811169556  5.993359375 12.070046875  C 5.86342726959723 12.0720108294306  5.73587063339877 12.1051767337886  5.6214375 12.16675  C 5.60482266352432 12.1740064479288  5.58867209657325 12.1822826350643  5.573078125 12.19153125  L 4.1734375 13.011  L 4.1126875 13.04571875  C 4.09399579192525 13.0588843494922  4.07221869311483 13.0669955921781  4.04946875 13.069265625  C 3.99772164274454 13.0679100834609  3.95648224849807 13.0255617307137  3.9565 12.973796875  L 4.009796875 12.756859375  L 4.073015625 12.522546875  L 4.1746875 12.13575  L 4.2875 11.7055625  C 4.30555928970967 11.6481659920849  4.31516525986556 11.5884458072144  4.316015625 11.52828125  C 4.31633356757384 11.3416426017732  4.22741130608808 11.1660976422804  4.07675 11.0559375  C 3.87185523989011 10.9052926951704  3.67643320605769 10.7421713926977  3.49159375 10.5675  C 3.17950443938897 10.2755818180944  2.90166813254583 9.94907789606041  2.663453125 9.594296875  C 2.12118564477968 8.79909513943682  1.82812709945487 7.86036563788315  1.821671875 6.897890625  C 1.82085576311494 6.16399035330122  1.99061853336399 5.43994307155084  2.3175625 4.782890625  C 2.57263222029491 4.270881374126  2.90739511365314 3.80262786108427  3.30934375 3.395625  C 4.44628138994059 2.27553276188786  5.9353226990274 1.58269097323263  7.524421875 1.434375  C 8.09614868501693 1.36911028266414  8.67344506498307 1.36911028266414  9.245171875 1.434375  C 10.82683488657 1.5908287742849  12.3064651129114 2.2868640908786  13.435484375 3.405546875  C 13.8377001968364 3.81418619124285  14.1724636868831 4.28411240497039  14.427265625 4.797765625  C 14.7512907623909 5.44923915363378  14.9209703630892 6.16656946291621  14.92315625 6.894171875  C 14.92315625 6.96978125  14.92315625 7.044171875  14.91446875 7.119796875  C 15.3516327322181 6.85365805621799  15.9138064799626 6.91906829027864  16.2781875 7.27846875  C 16.29678125 7.2970625  16.31165625 7.31690625  16.329015625 7.33675  C 16.3414247343343 7.1820920504738  16.347627633254 7.02699872740246  16.347609375 6.87184375  C 16.3482918536925 5.94757026374016  16.136189850277 5.0355455496688  15.727734375 4.206421875  Z " fill-rule="nonzero" fill="#2484dd" stroke="none" transform="matrix(1 0 0 1 132 115 )" />
  </g>
</svg>