<?xml version="1.0" encoding="utf-8"?>
<svg version="1.1" xmlns:xlink="http://www.w3.org/1999/xlink" width="5px" height="10px" xmlns="http://www.w3.org/2000/svg">
  <g transform="matrix(1 0 0 1 -125 -8 )">
    <path d="M 4.90017361450195 9.83930210485537  C 4.83651620483399 9.90664217458678  4.75405093383789 9.94031220945248  4.67013888549805 9.94031220945248  C 4.58622685241699 9.94031220945248  4.50376156616211 9.90664217458678  4.44010417175293 9.83930210485537  L 0.0998263854980475 5.24793388429752  C -0.02748843383789 5.11325374483471  -0.02748843383789 4.89592899341426  0.0998263854980475 4.76124885395144  L 0.107060180664063 4.75359657476756  L 4.44010417175293 0.169880617252066  C 4.56741899108887 0.0352004777892557  4.77285879516602 0.0352004777892557  4.90017361450195 0.169880617252066  C 5.02748843383789 0.304560756714875  5.02748843383789 0.52188550813533  4.90017361450195 0.656565663739669  L 0.789930557250977 5.00459136105372  L 4.90017361450195 9.3526170745093  C 5.02748843383789 9.48729721397211  5.02748843383789 9.70462196539256  4.90017361450195 9.83930210485537  Z " fill-rule="nonzero" fill="#333333" stroke="none" transform="matrix(1 0 0 1 125 8 )" />
  </g>
</svg>