<?xml version="1.0" encoding="utf-8"?>
<svg version="1.1" xmlns:xlink="http://www.w3.org/1999/xlink" width="24px" height="24px" xmlns="http://www.w3.org/2000/svg">
  <g transform="matrix(1 0 0 1 -190 -409 )">
    <path d="M 202 409  C 208.72 409  214 414.28  214 421  C 214 427.72  208.72 433  202 433  C 195.28 433  190 427.72  190 421  C 190 414.28  195.28 409  202 409  Z " fill-rule="nonzero" fill="#ffffff" stroke="none" />
    <path d="M 202 409.5  C 208.44 409.5  213.5 414.56  213.5 421  C 213.5 427.44  208.44 432.5  202 432.5  C 195.56 432.5  190.5 427.44  190.5 421  C 190.5 414.56  195.56 409.5  202 409.5  Z " stroke-width="1" stroke="#aaaaaa" fill="none" />
  </g>
</svg>