<?xml version="1.0" encoding="utf-8"?>
<svg version="1.1" xmlns:xlink="http://www.w3.org/1999/xlink" width="20px" height="25px" xmlns="http://www.w3.org/2000/svg">
  <g transform="matrix(1 0 0 1 -1405 -18 )">
    <path d="M 6.7 21.675  L 13.35 21.675  C 13.35 23.525  11.875 25  10.025 25  C 8.175 25  6.7 23.525  6.7 21.675  Z M 12.2 2.55  C 12.275 2.475  12.275 2.325  12.275 2.25  C 12.275 1  11.275 0  10.025 0  C 8.775 0  7.775 1  7.775 2.25  L 7.775 2.625  C 4.75 3.625  2.275 6.95  2.275 10.825  L 2.275 13.85  C 2.275 13.85  2.275 18.25  1.2 18.25  C 0.575 18.25  0.0499999999999998 18.725  0.0499999999999998 19.325  C 0.0499999999999998 19.95  0.525 20.4  1.125 20  L 18.85 20  C 19.475 20.4  19.925 19.925  19.925 19.325  C 19.925 18.7  19.45 18.25  18.85 18.25  C 17.775 18.275  17.775 13.85  17.775 13.85  L 17.775 10.75  C 17.775 6.875  15.45 3.55  12.2 2.55  Z " fill-rule="nonzero" fill="#ffffff" stroke="none" transform="matrix(1 0 0 1 1405 18 )" />
  </g>
</svg>