<?xml version="1.0" encoding="utf-8"?>
<svg version="1.1" xmlns:xlink="http://www.w3.org/1999/xlink" width="20px" height="20px" xmlns="http://www.w3.org/2000/svg">
  <g transform="matrix(1 0 0 1 -1414 -6 )">
    <path d="M 1424 6  C 1429.6 6  1434 10.4  1434 16  C 1434 21.6  1429.6 26  1424 26  C 1418.4 26  1414 21.6  1414 16  C 1414 10.4  1418.4 6  1424 6  Z " fill-rule="nonzero" fill="#f56c6c" stroke="none" />
    <path d="M 1424 6.5  C 1429.32 6.5  1433.5 10.68  1433.5 16  C 1433.5 21.32  1429.32 25.5  1424 25.5  C 1418.68 25.5  1414.5 21.32  1414.5 16  C 1414.5 10.68  1418.68 6.5  1424 6.5  Z " stroke-width="1" stroke="#ffffff" fill="none" />
  </g>
</svg>