<?xml version="1.0" encoding="utf-8"?>
<svg version="1.1" xmlns:xlink="http://www.w3.org/1999/xlink" width="32px" height="40px" xmlns="http://www.w3.org/2000/svg">
  <g transform="matrix(1 0 0 1 -1398 -10 )">
    <path d="M 10.72 34  L 21.36 34  C 21.36 37.64  19 40  16.04 40  C 13.08 40  10.72 37.64  10.72 34  Z M 19.52 4.08  C 19.64 3.96  19.64 3.72  19.64 3.6  C 19.64 1.6  18.04 0  16.04 0  C 14.04 0  12.44 1.6  12.44 3.6  L 12.44 4.2  C 7.6 5.8  3.64 11.12  3.64 17.32  L 3.64 22.16  C 3.64 22.16  3.64 29.2  1.92 29.2  C 0.92 29.2  0.0799999999999997 29.96  0.0799999999999997 30.92  C 0.0799999999999997 31.92  0.84 32.64  1.8 32  L 30.16 32  C 31.16 32.64  31.88 31.88  31.88 30.92  C 31.88 29.92  31.12 29.2  30.16 29.2  C 28.44 29.24  28.44 22.16  28.44 22.16  L 28.44 17.2  C 28.44 11  24.72 5.68  19.52 4.08  Z " fill-rule="nonzero" fill="#ffffff" stroke="none" transform="matrix(1 0 0 1 1398 10 )" />
  </g>
</svg>