<?xml version="1.0" encoding="utf-8"?>
<svg version="1.1" xmlns:xlink="http://www.w3.org/1999/xlink" width="23px" height="22px" xmlns="http://www.w3.org/2000/svg">
  <g transform="matrix(1 0 0 1 -18 -452 )">
    <path d="M 1.98339161 1.177749436  C 1.98339161 1.6870032  2.46066434 2.10801993  3.04545455 2.10801993  L 20.0174825 2.10801993  C 20.6022727 2.10801993  21.0795455 1.69204532  21.0795455 1.180270495  C 21.0795455 0.66849567  20.6022727 0.25  20.0174825 0.25  L 3.04545455 0.25  C 2.46066434 0.25  1.98339161 0.665974611  1.98339161 1.177749436  Z M 9.48675442 10.5468606  L 9.46028383 10.5468606  L 9.48675442 10.5468606  Z M 22.75 5.00723692  C 22.75 4.43243564  22.2727273 3.97108198  21.6879371 4  L 1.31206294 4  C 0.727272727 3.97108198  0.25 4.43999881  0.25 5.00975798  L 0.25 20.461324  C 0.25 21.0310832  0.727272727 21.5  1.31206294 21.5  L 21.6879371 21.5  C 22.2727273 21.5  22.75 21.0310832  22.75 20.461324  L 22.75 5.00723692  Z M 14.9956294 13.6821984  C 15.5804196 13.6821984  16.0576923 14.098173  16.0576923 14.6099478  C 16.0576923 15.1192016  15.5804196 15.5376972  14.9956294 15.5376972  L 12.4519231 15.5376972  L 12.4519231 17.7839601  C 12.4519231 18.3537193  12.0218531 18.8226361  11.5 18.8226361  C 10.9781469 18.8226361  10.5480769 18.3537193  10.5480769 17.7839601  L 10.5480769 15.5427394  L 8.00961538 15.5427394  C 7.42482517 15.5427394  6.94755245 15.1267647  6.94755245 14.6149899  C 6.94755245 14.1057361  7.42482517 13.6872405  8.00961538 13.6872405  L 10.5480769 13.6872405  L 10.5480769 12.3510796  L 8.00961538 12.3510796  C 7.42482517 12.3510796  6.94755245 11.935105  6.94755245 11.4233302  C 6.94755245 10.9140764  7.42482517 10.4955807  8.00961538 10.4955807  L 9.41783217 10.4955807  L 8.89597902 9.52497331  L 8.28234266 8.3778918  C 8.01223776 7.87115909  8.16695804 7.26862617  8.63111888 7.02912564  C 9.09527972 6.79214616  9.69842657 7.01147823  9.96590909 7.51316882  L 10.4615385 8.43587614  C 10.4694056 8.44848143  10.4798951 8.46612884  10.4877622 8.47873413  L 10.9965035 9.42665203  L 11.0017483 9.42665203  L 11.5183566 10.3871752  L 12.034965 9.42665203  L 12.0402098 9.42665203  L 12.548951 8.47873413  C 12.5568182 8.46108672  12.5673077 8.44848143  12.5751748 8.43587614  L 13.0708042 7.51316882  C 13.3409091 7.00643611  13.9414336 6.7896251  14.4055944 7.02912564  C 14.8697552 7.26610511  15.0244755 7.87115909  14.7543706 8.3778918  L 14.1407343 9.52497331  L 13.6188811 10.4955807  L 13.6136364 10.4955807  L 14.9982517 10.4955807  C 15.583042 10.4955807  16.0603147 10.9115553  16.0603147 11.4233302  C 16.0603147 11.9325839  15.583042 12.3510796  14.9982517 12.3510796  L 12.4493007 12.3510796  L 12.4493007 13.6821984  L 14.9956294 13.6821984  Z " fill-rule="nonzero" fill="#00d8ff" stroke="none" transform="matrix(1 0 0 1 18 452 )" />
  </g>
</svg>