<?xml version="1.0" encoding="utf-8"?>
<svg version="1.1" xmlns:xlink="http://www.w3.org/1999/xlink" width="14px" height="14px" xmlns="http://www.w3.org/2000/svg">
  <g transform="matrix(1 0 0 1 -28 -518 )">
    <path d="M 14 7.2692308  C 14 3.5673077  10.9711538 0.5384615  7.2692308 0.5384615  C 3.5673077 0.5384615  0.5384615 3.5673077  0.5384615 7.2692308  C 0.5384615 10.9711538  3.5673077 14  7.2692308 14  C 10.9711538 14  14 10.9711538  14 7.2692308  Z M 11.5961538 7.125  C 11.4519231 7.1730769  11.2596154 7.2211538  11.1153846 7.2692308  C 11.1153846 7.4134615  11.1634615 7.6057692  11.1634615 7.75  L 11.1634615 10.0576923  C 11.1634615 10.2019231  11.0673077 10.3942308  11.0192308 10.4423077  C 10.9711538 10.5384615  9.8173077 10.5384615  9.7211538 10.4423077  C 9.4326923 10.25  9.625 9.9134615  9.5288462 9.6730769  L 5.5865385 9.6730769  C 5.4903846 9.9615385  5.4423077 10.4423077  5.3942308 10.4423077  C 5.2019231 10.5384615  4.0961538 10.5384615  4.0480769 10.4423077  C 3.9519231 10.3942308  3.9038462 10.1538462  3.9038462 10.0096154  L 3.9038462 9.0480769  L 3.9038462 7.2692308  C 3.8076923 7.2211538  3.6153846 7.1730769  3.4711538 7.1730769  L 3.4711538 6.9807692  C 3.5673077 6.6442308  3.7596154 6.4038462  4.1442308 6.4519231  C 4.1923077 6.4519231  4.2884615 6.3557692  4.3365385 6.2596154  C 4.4807692 5.875  4.625 5.5384615  4.7211538 5.1538462  C 4.9134615 4.5288462  5.3461538 4.2403846  5.9711538 4.1442308  C 6.2115385 4.0961538  6.4038462 4.0961538  6.6442308 4.0480769  C 7.2692308 3.9519231  7.7980769 3.9519231  8.375 4.0480769  C 8.7596154 4.1442308  9.1923077 4.1923077  9.5769231 4.2884615  C 9.8653846 4.3846154  10.0576923 4.5769231  10.2019231 4.8653846  C 10.3461538 5.3461538  10.5384615 5.8269231  10.7307692 6.2596154  C 10.7788462 6.3557692  10.875 6.4519231  10.9230769 6.4519231  C 11.3076923 6.4038462  11.5 6.5961538  11.5961538 6.9326923  L 11.5961538 7.125  Z " fill-rule="nonzero" fill="#ff5f70" stroke="none" transform="matrix(1 0 0 1 28 518 )" />
  </g>
</svg>