<?xml version="1.0" encoding="utf-8"?>
<svg version="1.1" xmlns:xlink="http://www.w3.org/1999/xlink" width="16px" height="20px" xmlns="http://www.w3.org/2000/svg">
  <g transform="matrix(1 0 0 1 -23 -507 )">
    <path d="M 0.25 3.6502849  C 0.25 4.03964862  0.58334821 4.38034188  0.9643176 4.38034188  C 1.34528699 4.38034188  1.67863521 4.03964862  1.67863521 3.6502849  L 1.67863521 0.73005698  C 1.67863521 0.340693257  1.34528699 0  0.9643176 0  C 0.58334821 0  0.25 0.340693257  0.25 0.73005698  L 0.25 3.6502849  Z M 14.6315944 16.4506173  C 14.5363521 16.109924  14.2982462 15.9152422  13.964898 15.9152422  C 13.1077169 15.8665717  12.2981569 15.8665717  11.4409758 15.8179012  C 11.1552487 15.8179012  10.8695217 15.8665717  10.6314158 15.9639126  C 10.5361735 16.0125831  10.39331 16.0612536  10.3456888 16.1585945  C 10.1552041 16.6452991  9.9647194 17.1806743  9.7742347 17.7647198  C 11.5838393 18.1540836  13.2982016 18.1540836  15.060185 17.7647198  C 14.8697003 17.2780152  14.7268368 16.839981  14.6315944 16.4506173  Z M 6.4407526 3.6502849  C 6.4407526 4.03964862  6.7741008 4.38034188  7.1550702 4.38034188  C 7.5360396 4.38034188  7.8693878 4.03964862  7.8693878 3.6502849  L 7.8693878 0.73005698  C 7.8693878 0.340693257  7.5360396 0  7.1550702 0  C 6.7741008 0  6.4407526 0.340693257  6.4407526 0.73005698  L 6.4407526 3.6502849  Z M 15.345912 18.7867996  C 14.9173215 18.932811  14.5363521 19.0788224  14.1077615 19.2735043  C 13.9172768 19.3708452  14.0125192 19.6141975  14.2030039 19.662868  C 14.3458674 19.7115385  14.5363521 19.7115385  14.7744579 19.7115385  C 14.9649426 19.7115385  15.2030485 19.662868  15.3935332 19.6141975  C 15.6792602 19.5655271  15.6316391 19.2735043  15.6316391 19.0788224  C 15.6316391 18.8841406  15.4887755 18.7381292  15.345912 18.7867996  Z " fill-rule="nonzero" fill="#ff5f70" stroke="none" transform="matrix(1 0 0 1 23 507 )" />
  </g>
</svg>