<?xml version="1.0" encoding="utf-8"?>
<svg version="1.1" xmlns:xlink="http://www.w3.org/1999/xlink" width="20px" height="23px" xmlns="http://www.w3.org/2000/svg">
  <g transform="matrix(1 0 0 1 -20 -343 )">
    <path d="M 16.9999496 0.25  L 7.6250139 0.25  C 7.02493532 0.25  6.49998871 0.737510554  6.49998871 1.37502827  L 6.49998868 5.12495114  C 6.49998868 5.76246888  6.01247947 6.24997941  5.3749635 6.24997941  L 1.62502521 6.24997941  C 0.987509217 6.24997941  0.5 6.73748997  0.5 7.37500769  L 0.5 20.5000463  C 0.5 21.7375157  1.51248153 22.75  2.7500504 22.75  L 16.9999496 22.75  C 18.2374156 22.75  19.25 21.7375157  19 20.5000463  L 19 2.50005655  C 19.25 1.26245861  18.2374156 0.25  16.9999496 0.25  Z M 14.5624807 17.1249614  L 5.187545 17.1249614  C 4.88745428 17.1249614  4.62505813 16.8625645  4.62505813 16.5625758  C 4.62505813 16.2624843  4.8874543 16.000036  5.187545 16.000036  L 14.5624807 16.000036  C 14.8624686 16.000036  15.1249676 16.2624843  15.1249676 16.5625758  C 15.1249676 16.8625388  14.8624686 17.1249614  14.5624807 17.1249614  Z M 14.5624807 13.3750129  L 5.187545 13.3750129  C 4.88745428 13.3750129  4.62505813 13.1124874  4.62505813 12.8125244  C 4.62505813 12.5125615  4.8874543 12.2499846  5.187545 12.2499846  L 14.5624807 12.2499846  C 14.8624686 12.2499846  15.1249676 12.5125358  15.1249676 12.8125244  C 15.1249676 13.1125131  14.8624686 13.3750129  14.5624807 13.3750129  Z M 14.5624807 9.62496142  L 8.56249204 9.62496142  C 8.26250419 9.62496142  7.99995373 9.36253881  7.99995373 9.062473  C 7.99995373 8.76248432  8.26250419 8.50006172  8.56249204 8.50006172  L 14.5624807 8.50006172  C 14.8624686 8.50006172  15.1249676 8.76251002  15.1249676 9.062473  C 15.1249676 9.36253881  14.8624686 9.62496142  14.5624807 9.62496142  Z M 1.325037335 5.16249151  L 4.21247516 5.16249151  C 4.84999115 5.16249151  5.33750037 4.67498095  5.33750037 4.03746323  L 5.33750037 0.962469905  C 5.33750037 0.549962971  5.11251591 0.437521853  4.81242519 0.737484824  L 1.062512607 4.60000309  C 0.799987878 4.89999176  0.912531532 5.16249151  1.325037335 5.16249151  Z " fill-rule="nonzero" fill="#41de2a" stroke="none" transform="matrix(1 0 0 1 20 343 )" />
  </g>
</svg>