<?xml version="1.0" encoding="utf-8"?>
<svg version="1.1" xmlns:xlink="http://www.w3.org/1999/xlink" width="23px" height="23px" xmlns="http://www.w3.org/2000/svg">
  <g transform="matrix(1 0 0 1 -19 -233 )">
    <path d="M 19.2963557 12.7506302  C 19.3638812 12.7509503  19.4312245 12.7581102  19.4974726 12.772013  L 19.5951579 12.7979779  L 19.6167062 12.8040872  L 19.6368179 12.8132513  C 19.8479906 12.9110014  20.0548537 13.0240249  20.2530976 13.1492672  C 20.3895697 13.2317438  20.5231688 13.3172751  20.6510218 13.4119705  L 20.8392097 13.5601229  L 20.8535752 13.5753964  C 21.0882726 13.8100603  21.2058117 14.148209  21.1710526 14.4887486  L 21.1480679 14.6338463  L 21.1480679 14.6521745  L 21.1020983 14.7972722  C 20.9879336 15.3221083  21.2355631 15.8601443  21.6953932 16.0863513  L 21.8232461 16.1398083  L 21.9697741 16.1734099  C 22.2929977 16.2681053  22.5443939 16.5124805  22.6607544 16.8301682  L 22.7009778 16.9706839  L 22.7426377 17.5098366  L 22.7483839 17.7526845  C 22.7526935 17.9206924  22.7483839 18.0887003  22.7354549 18.2567082  L 22.7110336 18.5087201  L 22.7052874 18.5316303  C 22.6313733 18.8661157  22.4129337 19.1436777  22.1163021 19.2800293  L 21.9870127 19.3289043  L 21.8404847 19.3670879  C 21.3528746 19.5244631  21.0369309 20.0251389  21.0848597 20.5645263  L 21.1078445 20.7111514  L 21.1523775 20.8654132  C 21.2309405 21.1985698  21.1575053 21.5516115  20.9541337 21.8184764  L 20.8593214 21.9253905  L 20.8449559 21.9406639  C 20.6582045 22.0949258  20.4599607 22.2339142  20.251661 22.3545744  C 20.1166254 22.4416331  19.9758435 22.5225823  19.8336251 22.5928402  L 19.6152696 22.6951723  L 19.5965945 22.702809  C 19.287532 22.8026677  18.952291 22.7421312  18.6915684 22.5393831  L 18.5852637 22.4446877  L 18.5708982 22.4294143  L 18.478959 22.3255548  C 18.108295 21.9584638  17.5468362 21.9164613  17.1314757 22.2247501  L 17.0136787 22.3255548  L 16.9260491 22.427887  C 16.6526946 22.7194346  16.2483629 22.8227728  15.8802412 22.6951723  C 15.6618336 22.6002666  15.4509417 22.4868792  15.249596 22.3561017  C 15.1107495 22.2756572  14.9760043 22.187457  14.8459256 22.0918711  L 14.6548645 21.9421913  L 14.640499 21.9253905  C 14.4054718 21.6897575  14.2884019 21.3502961  14.3244582 21.0089836  L 14.3460064 20.8654132  L 14.3891029 20.709624  C 14.5038007 20.1798116  14.2514464 19.6374539  13.7857521 19.4129083  L 13.6564627 19.3594512  L 13.5271732 19.3289043  C 13.1550453 19.2229585  12.8699653 18.9045285  12.7887868 18.5041381  C 12.7673867 18.3369889  12.7544391 18.168739  12.75 18.0001143  L 12.75 17.4960905  L 12.7629289 17.2440786  L 12.7887868 16.9935941  L 12.7916599 16.9706839  C 12.8658757 16.6358768  13.0848979 16.3582515  13.3820818 16.2222849  L 13.5128077 16.1734099  L 13.6593358 16.1352263  C 14.1455412 15.9751462  14.4600559 15.4751488  14.4135242 14.9362606  L 14.391976 14.7911628  L 14.347443 14.6353737  C 14.26888 14.3022171  14.3423152 13.9491753  14.5456868 13.6823105  L 14.640499 13.5753964  L 14.6548645 13.5631776  C 14.8387428 13.4058611  15.0369867 13.2684001  15.2438498 13.1462125  C 15.3788854 13.0606812  15.5182307 12.9812592  15.6604491 12.9079467  L 15.8759315 12.8071419  L 15.9003529 12.7979779  C 16.2093403 12.6968786  16.5451125 12.757511  16.805379 12.9614038  L 16.9131202 13.0576265  L 17.0165517 13.1798141  C 17.3828718 13.5402674  17.9359434 13.5860878  18.3496696 13.2867282  L 18.4775225 13.1813414  L 18.578081 13.0652632  C 18.7692707 12.864035  19.0273297 12.7509949  19.2963557 12.7506302  Z M 2.9066263 0.5  L 18.8433737 0.5  C 20.30941 0.5  21.5 1.68916909  21.5 3.1553092  L 21.5 11.7880747  C 18.7220518 9.70907002  14.8119638 10.1191815  12.5257712 12.729341  C 10.23957851 15.3395005  10.3479612 19.2698182  12.7745254 21.75  L 2.9066263 21.75  C 1.43941212 21.75  0.25 20.5605037  0.25 19.0931855  L 0.25 3.1553092  C 0.25 1.68916909  1.43908486 0.5  2.9066263 0.5  Z M 17.8300608 16.5025355  L 17.8287936 16.5025355  C 17.3733216 16.4735166  16.9382754 16.6952817  16.6940081 17.0809931  C 16.4497408 17.4667045  16.4351243 17.9549813  16.6558822 18.3546266  C 16.87664 18.7542719  17.2976415 19.0016874  17.7540329 19  C 18.4279081 18.9981378  18.9788958 18.4619448  18.9994105 17.7880537  C 19.0199252 17.1141625  18.5025742 16.5454155  17.8300608 16.5025355  Z M 11.7494636 9.25  L 11.7466292 9.25  L 3.74658981 9.25  C 3.22008711 9.25261363  2.78528887 9.76455614  2.75202749 10.42102301  C 2.7187661 11.0774899  3.09842343 11.6538418  3.62045988 11.7393768  L 3.74658981 11.75  L 11.7494636 11.75  C 12.3020446 11.75  12.75 11.1903559  12.75 10.5  C 12.75 9.80964406  12.3020446 9.25  11.7494636 9.25  Z M 16.5970022 3  L 3.90537857 3  C 3.29573097 3  2.78985318 3.51345608  2.75238075 4.17209631  C 2.71346708 4.83250709  3.15593 5.4114731  3.76125384 5.49114732  L 3.90537857 5.5  L 16.5970022 5.5  C 17.2340335 5.5  17.75 4.9405099  17.75 4.25000001  C 17.75 3.5594901  17.2340335 3  16.5970022 3  Z " fill-rule="nonzero" fill="#ff5f70" stroke="none" transform="matrix(1 0 0 1 19 233 )" />
  </g>
</svg>