<?xml version="1.0" encoding="utf-8"?>
<svg version="1.1" xmlns:xlink="http://www.w3.org/1999/xlink" width="9px" height="8px" xmlns="http://www.w3.org/2000/svg">
  <g transform="matrix(1 0 0 1 -32 -190 )">
    <path d="M 0.703127812406691 0  L 4.70089081139303 0  C 5.08985176345869 0.0012727599999991  5.40430117045389 0.347106119999999  5.40341228063199 0.772637360000001  L 5.40341228063199 1.29483516  L 6.9020711703525 1.29483516  C 7.01042601864192 1.29487537  7.11415603785801 1.34287655  7.18964894273184 1.42791209  L 8.88588572286456 3.33692308  C 8.95907620819971 3.41946468  9 3.5299468  9 3.64494505  L 9 6.58912088  L 8.40133273995225 6.58912088  C 8.40022783017364 7.36846154  7.82517272539482 8  7.11562001756468 8  C 6.40606730973454 8  5.83091175497585 7.36846154  5.82990729517711 6.58912088  L 3.17320293748893 6.58912088  C 3.17209802771032 7.36846154  2.59694247295163 8  1.88749021510136 8  C 1.1780379472511 8  0.602681502532663 7.36846154  0.601978382673547 6.58912088  L 0.401788892784605 6.58912088  C 0.294988984183621 6.58885887  0.192658484687117 6.54219251  0.117309079784538 6.45938792  C 0.0419596748819582 6.37658333  -0.000236363663413619 6.26442349  0 6.14758242  L 0 0.772637360000001  C -0.000423041626011962 0.568168350000001  0.0734194785784975 0.371890049999999  0.20528381215744 0.22698916  C 0.337148145736379 0.0820882800000007  0.516230519854458 0.000436679999999967  0.703127812406691 0  Z M 2.30077765229283 6.62419714  C 2.30133939218028 6.33529762  2.08259190600972 6.10208681  1.81215451019604 6.10143108  C 1.68227614621918 6.10171734  1.5578259211547 6.15676515  1.46618851951567 6.25446149  C 1.37455112787665 6.35215784  1.32323515815859 6.48449767  1.32353117809928 6.62236022  C 1.32353117809928 6.91064515  1.54229600426636 7.14285714  1.81215451019604 7.14285714  C 2.08201302612571 7.14285714  2.30077765229283 6.91064515  2.30077765229283 6.62419714  Z M 7.45641230928167 6.25446149  C 7.36477490764265 6.15676515  7.24032468257817 6.10171734  7.11044631860131 6.10143108  C 6.84000893278763 6.10208681  6.62126143661707 6.33529762  6.62182317650452 6.62236022  C 6.62182317650452 6.91064515  6.84058781267164 7.14285714  7.11044631860131 7.14285714  C 7.38030482453099 7.14285714  7.59906966069807 6.91064515  7.59906966069807 6.62419714  C 7.59936567063876 6.48449767  7.5480497109207 6.35215784  7.45641230928167 6.25446149  Z M 6.83661437346778 2.41613567  C 6.75996723882522 2.33272547  6.65484021988904 2.28571429  6.54506988188323 2.28571429  L 5.76276561862999 2.28571429  L 5.76276561862999 4.67263084  L 8.20587588911505 4.67263084  L 8.20587588911505 3.90641874  L 6.83661437346778 2.41613567  Z " fill-rule="nonzero" fill="#0c58bb" stroke="none" transform="matrix(1 0 0 1 32 190 )" />
  </g>
</svg>