<?xml version="1.0" encoding="utf-8"?>
<svg version="1.1" xmlns:xlink="http://www.w3.org/1999/xlink" width="21px" height="24px" xmlns="http://www.w3.org/2000/svg">
  <g transform="matrix(1 0 0 1 -17 -508 )">
    <path d="M 13.6057692 24  C 11.4903846 22.5096154  10.0961538 20.0576923  10.0961538 17.2692308  C 10.0961538 15.4903846  10.6730769 13.8076923  11.6826923 12.4615385  L 4.56730769 12.4615385  C 4.18269231 12.4615385  3.84615385 12.125  3.84615385 11.7403846  C 3.84615385 11.3557692  4.18269231 11.0192308  4.56730769 11.0192308  L 12.9807692 11.0192308  C 14.4230769 9.8173077  16.25 9.0961538  18.2692308 9.0961538  C 18.9423077 9.0961538  19.5673077 9.1923077  20.1923077 9.3365385  L 20.1923077 4.28846154  C 20.1923077 2.17307692  18.5576923 0.44230769  16.5384615 0.44230769  L 14.9038462 0.44230769  L 14.9038462 2.60576923  C 14.9038462 3.51923077  14.1346154 4.28846154  13.2211538 4.28846154  C 12.3076923 4.28846154  11.5384615 3.51923077  11.5384615 2.60576923  L 11.5384615 0.68269231  L 11.5384615 0.44230769  L 8.65384615 0.44230769  L 8.65384615 2.60576923  C 8.65384615 3.51923077  7.88461538 4.28846154  6.97115385 4.28846154  C 6.05769231 4.28846154  5.28846154 3.51923077  5.28846154 2.60576923  L 5.28846154 0.68269231  L 5.28846154 0.44230769  L 3.65384615 0.44230769  C 1.63461538 0.44230769  0 2.17307692  0 4.28846154  L 0 20.1538462  C 0 22.2692308  1.63461538 24  3.65384615 24  L 13.6057692 24  Z M 3.84615385 7.41346154  C 3.84615385 7.02884615  4.18269231 6.69230769  4.56730769 7  L 15.625 7  C 16.0096154 6.69230769  16.3461538 7.02884615  16.3461538 7.41346154  C 16.3461538 7.79807692  16.0096154 8.13461538  15.625 8.13461538  L 4.56730769 8.13461538  C 4.18269231 8.13461538  3.84615385 7.79807692  3.84615385 7.41346154  Z M 8.65384615 16.0673077  C 8.65384615 16.4519231  8.31730769 16.7884615  7.93269231 16.7884615  L 4.56730769 16.7884615  C 4.18269231 16.7884615  3.84615385 16.4519231  3.84615385 16.0673077  C 3.84615385 15.6826923  4.18269231 15.3461538  4.56730769 15.3461538  L 7.93269231 15.3461538  C 8.31730769 15.3461538  8.65384615 15.6826923  8.65384615 16.0673077  Z " fill-rule="nonzero" fill="#ff5f70" stroke="none" transform="matrix(1 0 0 1 17 508 )" />
  </g>
</svg>