<?xml version="1.0" encoding="utf-8"?>
<svg version="1.1" xmlns:xlink="http://www.w3.org/1999/xlink" width="23px" height="23px" xmlns="http://www.w3.org/2000/svg">
  <g transform="matrix(1 0 0 1 -16 -177 )">
    <path d="M 22.75 1.85714286  L 22.75 16.3214286  C 22.75 19.8718305  19.8718305 22.75  16.3214286 22.75  L 3.46428571 22.75  C 1.68908473 22.75  0.25 21.3109153  0.25 19.5357143  C 0.25 17.7605133  1.68908473 16.3214286  3.46428571 16.3214286  L 3.46428571 1.85714286  C 3.46428571 0.969542366  4.18382808 0.25  5.07142857 0.25  L 21.1428571 0.25  C 22.0304576 0.25  22.75 0.969542366  22.75 1.85714286  Z M 16.9464286 5.25  L 7.30357143 5.25  C 6.85977118 5.25  6.5 5.52982203  6.5 5.875  C 6.5 6.22017797  6.85977118 6.5  7.30357143 6.5  L 16.9464286 6.5  C 17.3902288 6.5  17.75 6.22017797  17.75 5.875  C 17.75 5.52982203  17.3902288 5.25  16.9464286 5.25  Z M 10.6666667 10.25  L 7.33333333 10.25  C 6.87309604 10.25  6.5 10.529822  6.5 10.875  C 6.5 11.220178  6.87309604 11.5  7.33333333 11.5  L 10.6666667 11.5  C 11.126904 11.5  11.5 11.220178  11.5 10.875  C 11.5 10.529822  11.126904 10.25  10.6666667 10.25  Z M 13.25 15.25  L 7.25 15.25  C 6.83578644 15.25  6.5 15.529822  6.5 15.875  C 6.5 16.220178  6.83578644 16.5  7.25 16.5  L 13.25 16.5  C 13.6642136 16.5  14 16.220178  14 15.875  C 14 15.529822  13.6642136 15.25  13.25 15.25  Z " fill-rule="nonzero" fill="#ffb42d" stroke="none" transform="matrix(1 0 0 1 16 177 )" />
  </g>
</svg>