<?xml version="1.0" encoding="utf-8"?>
<svg version="1.1" xmlns:xlink="http://www.w3.org/1999/xlink" width="20px" height="25px" xmlns="http://www.w3.org/2000/svg">
  <g transform="matrix(1 0 0 1 -18 -562 )">
    <path d="M 1.625 0  L 18.1796875 0  C 19.0772879 0  19.8046875 0.727399554  19.8046875 1.625  L 19.8046875 13.4972098  C 19.5996094 13.5496652  18.3420759 14.4397321  17.7820871 14.9946987  L 14.8496094 17.9095982  L 14.7421875 17.8021763  C 14.0147879 17.0797991  13.047433 16.6821987  12.0223214 16.6821987  C 9.89732143 16.6821987  8.16992187 18.4048549  8.16992187 20.5198103  C 8.16992187 21.547433  8.57254464 22.5125558  9.30245536 23.2374442  L 10.75 24.6774554  L 1.625 24.6774554  C 0.727399554 24.6774554  0 23.9500558  0 23.0524554  L 0 1.625  C 0 0.727399554  0.727399554 0  1.625 0  Z M 7.098 19.254  L 7.098 18.744  L 3.648 18.744  L 3.648 19.254  L 5.112 19.254  L 5.112 20.82  L 5.058 20.802  C 4.824 20.706  4.62 20.478  4.44 20.13  C 4.482 19.932  4.512 19.728  4.524 19.512  L 4.02 19.452  C 3.972 20.112  3.732 20.706  3.3 21.246  L 3.726 21.612  C 3.948 21.33  4.128 21.024  4.266 20.694  C 4.434 20.97  4.626 21.162  4.836 21.27  C 5.13 21.414  5.676 21.486  6.474 21.492  C 6.666 21.498  6.876 21.504  7.11 21.504  L 7.266 20.952  C 7.038 20.976  6.762 20.988  6.438 20.988  C 6.138 20.988  5.88 20.97  5.658 20.946  L 5.658 20.31  L 6.84 20.31  L 6.84 19.806  L 5.658 19.806  L 5.658 19.254  L 7.098 19.254  Z M 3.072 17.184  L 3.072 16.098  L 2.496 16.098  L 2.496 17.184  L 1.818 17.184  L 1.818 17.73  L 2.496 17.73  L 2.496 18.966  C 2.244 19.056  1.992 19.134  1.734 19.194  L 1.872 19.77  C 2.082 19.698  2.292 19.626  2.496 19.548  L 2.496 20.832  C 2.496 20.97  2.424 21.042  2.286 21.042  C 2.142 21.042  1.986 21.03  1.83 21.012  L 1.956 21.564  L 2.484 21.564  C 2.874 21.564  3.072 21.366  3.072 20.982  L 3.072 19.302  C 3.222 19.23  3.372 19.152  3.528 19.074  L 3.528 18.492  C 3.378 18.576  3.228 18.654  3.072 18.726  L 3.072 17.73  L 3.63 17.73  L 3.63 17.184  L 3.072 17.184  Z M 6.738 18.432  L 6.738 16.266  L 4.038 16.266  L 4.038 18.432  L 6.738 18.432  Z M 4.59 17.562  L 6.18 17.562  L 6.18 17.97  L 4.59 17.97  L 4.59 17.562  Z M 4.59 16.728  L 6.18 16.728  L 6.18 17.13  L 4.59 17.13  L 4.59 16.728  Z M 17.4776786 11.7273996  C 17.4776786 10.8348214  16.7477679 10.1049107  15.8551897 10.1049107  L 3.9500558 10.1049107  C 3.05747768 10.1049107  2.32756696 10.8348214  2.32756696 11.7273996  C 2.32756696 12.6199777  3.05747768 13.3498884  3.9500558 13  L 15.8551897 13  C 16.7477679 13.3498884  17.4776786 12.6199777  17.4776786 11.7273996  Z M 17.4776786 5.28013393  C 17.4776786 4.3875558  16.7477679 3.65764509  15.8551897 4  L 3.9500558 4  C 3.05747768 3.65764509  2.32756696 4.3875558  2.32756696 5.28013393  C 2.32756696 6.1749442  3.05747768 6.90513393  3.9500558 7  L 15.8551897 7  C 16.7477679 6.90262923  17.4776786 6.17271205  17.4776786 5.28013393  Z " fill-rule="nonzero" fill="#ffb42d" stroke="none" transform="matrix(1 0 0 1 18 562 )" />
  </g>
</svg>