<?xml version="1.0" encoding="utf-8"?>
<svg version="1.1" xmlns:xlink="http://www.w3.org/1999/xlink" width="24px" height="24px" xmlns="http://www.w3.org/2000/svg">
  <g transform="matrix(1 0 0 1 -18 -122 )">
    <path d="M 10.3285714 7.99118304  C 10.3259605 9.28131696  9.27897869 10.3285714  7.98656972 10.3285714  L 2.63939078 10.3285714  C 1.34698181 10.3285714  0.300000000000001 9.28131696  0.300000000000001 7.98857143  L 0.300000000000001 2.64  C 0.300000000000001 1.34725446  1.34698181 0.299999999999997  2.63939078 0.299999999999997  L 7.98918064 0.299999999999997  C 9.28158962 0.299999999999997  10.3285714 1.34725446  10.3285714 2.64  L 10.3285714 7.99118304  Z M 23.7 7.99118304  C 23.6973891 9.28131696  22.6504073 10.3285714  21.3579983 10.3285714  L 16.0108194 10.3285714  C 14.7184104 10.3285714  13.6714286 9.28131696  13.6714286 7.98857143  L 13.6714286 2.64  C 13.6714286 1.34725446  14.7184104 0.299999999999997  16.0108194 0.299999999999997  L 21.3606092 0.299999999999997  C 22.6530182 0.299999999999997  23.7 1.34725446  23.7 2.64  L 23.7 7.99118304  Z M 10.3285714 21.3626116  C 10.3259605 22.6527455  9.27897869 23.7  7.98656972 23.7  L 2.63939078 23.7  C 1.34698181 23.7  0.300000000000001 22.6527455  0.300000000000001 21.36  L 0.300000000000001 16.0114286  C 0.300000000000001 14.718683  1.34698181 13.6714286  2.63939078 13.6714286  L 7.98918064 13.6714286  C 9.28158962 13.6714286  10.3285714 14.718683  10.3285714 16.0114286  L 10.3285714 21.3626116  Z M 23.7 21.3626116  C 23.6973891 22.6527455  22.6504073 23.7  21.3579983 23.7  L 16.0108194 23.7  C 14.7184104 23.7  13.6714286 22.6527455  13.6714286 21.36  L 13.6714286 16.0114286  C 13.6714286 14.718683  14.7184104 13.6714286  16.0108194 13.6714286  L 21.3606092 13.6714286  C 22.6530182 13.6714286  23.7 14.718683  23.7 16.0114286  L 23.7 21.3626116  Z " fill-rule="nonzero" fill="#ffb42d" stroke="none" transform="matrix(1 0 0 1 18 122 )" />
  </g>
</svg>