<?xml version="1.0" encoding="utf-8"?>
<svg version="1.1" xmlns:xlink="http://www.w3.org/1999/xlink" width="11px" height="14px" xmlns="http://www.w3.org/2000/svg">
  <g transform="matrix(1 0 0 1 -31 -627 )">
    <path d="M 4.2 5.90233930000001  L 6.8 5.90233930000001  L 6.8 4.59623110000001  C 6.8 3.89444170000001  6.2176 3.30311900000001  5.5 3.30311900000001  C 4.7772 3.30311900000001  4.2 3.88274520000001  4.2 4.59623110000001  L 4.2 5.90233930000001  Z M 1.5961 5.90233930000001  L 1.6 5.90233930000001  L 1.6 4.59883040000001  C 1.6 2.44556580000001  3.3460895 0.700000000000012  5.5 0.700000000000012  C 7.6539105 0.700000000000012  9.4 2.44556580000001  9.4 4.59883040000001  L 9.4 5.90233930000001  L 9.4039 5.90233930000001  C 10.1189 5.90233930000001  10.7 6.48846340000001  10.7 7.18895330000001  L 10.7 12.413386  C 10.7 13.1229731  10.1111 13.7  9.4039 13.7  L 1.5961 13.7  C 0.884405900000001 13.6986045  0.306410300000001 13.1248392  0.300000000000001 12.413386  L 0.300000000000001 7.18895330000001  C 0.300000000000001 6.47936620000001  0.888900000000001 5.90233930000001  1.5961 5.90233930000001  Z " fill-rule="nonzero" fill="#00d8ff" stroke="none" transform="matrix(1 0 0 1 31 627 )" />
  </g>
</svg>