<?xml version="1.0" encoding="utf-8"?>
<svg version="1.1" xmlns:xlink="http://www.w3.org/1999/xlink" width="28px" height="20px" xmlns="http://www.w3.org/2000/svg">
  <g transform="matrix(1 0 0 1 -16 -399 )">
    <path d="M 26.6002798 4.93858718  L 26.5990835 4.93858718  C 26.3227325 4.64043534  25.8489879 4.33274262  25.4099367 4.08587288  C 24.798477 3.74209114  24.1080934 3.56212195  23.4060928 3.56351087  L 19.6627928 3.56351087  C 19.3352199 3.56353439  19.0685614 3.30089441  19.0646305 2.97436282  L 19.0646305 2.37686651  C 19.0646305 1.0649984  17.9963125 0  16.6791591 0  L 2.38547147 0  C 1.06801196 0  0 1.06469334  0 2.37805914  L 0 14.2552361  C 0 15.5671042  1.06233635 16.6285248  2.38666779 16.6285248  L 3.59615209 16.6523769  C 3.8007236 18.0632314  4.92885779 19.063829  6.28788266 19.063829  C 7.6552818 19.063829  8.7882013 18.0513054  8.98320223 16.6285248  C 9.47608803 16.63091  19.9200027 16.6285248  19.9200027 16.6285248  C 20.1161999 18.0513054  21.2479231 19.063829  22.6153222 19.063829  C 23.9827213 19.063829  25.1156409 18.0513054  25.3106418 16.6285248  L 26.8132256 16.6285248  C 27.129023 16.6278939  27.4315991 16.5020644  27.6542277 16.2787852  C 27.8768564 16.055506  28.0012512 15.7531167  27.9999894 15.4383026  L 27.9999894 9.41682789  C 27.9999894 7.46095178  27.6147632 6.02982293  26.6002798 4.93858718  Z M 7.73425208 16.2993651  C 7.73425208 17.0781377  7.07027901 17.7006972  6.32855772 17.7006972  C 5.95505313 17.7025917  5.5962741 17.5556065  5.33205068 17.292428  C 5.06782725 17.0292496  4.92007873 16.6717106  4.92166698 16.2993651  C 4.92007874 15.9270196  5.06782727 15.5694806  5.33205069 15.3063022  C 5.59627411 15.0431237  5.95505314 14.8961385  6.32855772 14.898033  C 6.70185544 14.8964577  7.06032568 15.0435838  7.32428945 15.3067274  C 7.58825323 15.5698709  7.73583795 15.9272273  7.73425208 16.2993651  Z M 19.0646305 5.34526629  C 19.0646305 5.01729926  19.3314109 4.7513478  19.6604002 4.7513478  L 22.9383299 4.7513478  C 24.7675104 4.7513478  26.0583447 5.79130145  26.567979 7.5611308  C 26.61732 7.74083322  26.5795707 7.93319778  26.4659378 8.08111689  C 26.3523049 8.22903601  26.1758501 8.31550685  25.9889579 8.31486229  L 19.6604002 8.31486229  C 19.5023923 8.31486229  19.3508559 8.25228531  19.2391274 8.14090399  C 19.1273989 8.02952268  19.0646305 7.87845719  19.0646305 7.72094021  L 19.0646305 5.34526629  Z M 22.6165186 17.7006972  L 22.6177149 17.7006972  C 22.2442103 17.7025917  21.8854313 17.5556065  21.6212078 17.292428  C 21.3569844 17.0292496  21.2092359 16.6717106  21.2108241 16.2993651  C 21.2092383 15.9272273  21.356823 15.5698709  21.6207868 15.3067274  C 21.8847506 15.0435838  22.2432208 14.8964577  22.6165186 14.898033  C 22.9900231 14.8961385  23.3488022 15.0431237  23.6130256 15.3063022  C 23.877249 15.5694806  24.0249975 15.9270196  24.0234093 16.2993651  C 24.0249976 16.6717106  23.877249 17.0292496  23.6130256 17.292428  C 23.3488022 17.5556065  22.9900232 17.7025917  22.6165186 17.7006972  Z M 26.2138669 15.4406878  L 25.2209174 15.4406878  C 24.8345046 14.3911933  23.8283955 13.6124207  22.6667642 13.6124207  C 21.5088172 13.6102155  20.479216 14.346516  20.1102183 15.4406878  L 19.6604002 15.4406878  C 19.5023923 15.4406878  19.3508559 15.3781144  19.2391274 15.2667331  C 19.1273989 15.1553518  19.0646305 15.0042863  19.0646305 14.8467693  L 19.0646305 10.0966141  C 19.0646305 9.76864706  19.3314109 9.50269563  19.6604002 9.50269563  L 26.2138669 9.50269563  C 26.5428562 9.50269563  26.8096367 9.76864709  26.8096367 10.0966141  L 26.8096367 14.8467693  C 26.8096367 15.0042863  26.7468682 15.1553518  26.6351398 15.2667331  C 26.5234113 15.3781144  26.3718749 15.4406878  26.2138669 15.4406878  Z " fill-rule="nonzero" fill="#41de2a" stroke="none" transform="matrix(1 0 0 1 16 399 )" />
  </g>
</svg>