<?xml version="1.0" encoding="utf-8"?>
<svg version="1.1" xmlns:xlink="http://www.w3.org/1999/xlink" width="18px" height="24px" xmlns="http://www.w3.org/2000/svg">
  <g transform="matrix(1 0 0 1 -18 -617 )">
    <path d="M 12 14.5961  L 12 23.7  L 2.90000001 23.7  C 1.89380001 23.7  0.300000000000001 23.7  0.300000000000001 21.75  C 0.300000000000001 19.8  1.95620001 18.8146  2.90000001 18.5  C 5.78470003 17.538  7.24590001 16.576  7.81269999 15.0901  C 5.67159999 13.8135  4.2 11.1641  4.2 8.10000000000001  C 4.2 3.79179999000001  7.11069999 0.300000000000011  10.7 0.300000000000011  C 14.2893 0.300000000000011  17.2 3.79179999000001  17.2 8.10000000000001  C 17.2 8.54199999000001  17.1688 8.97750000000001  17.109 9.39999999000001  C 14.2745329 9.45030613000001  12.0023878 11.7611875  12 14.5961  Z " fill-rule="nonzero" fill="#00d8ff" stroke="none" transform="matrix(1 0 0 1 18 617 )" />
  </g>
</svg>