<?xml version="1.0" encoding="utf-8"?>
<svg version="1.1" xmlns:xlink="http://www.w3.org/1999/xlink" width="15px" height="12px" xmlns="http://www.w3.org/2000/svg">
  <g transform="matrix(1 0 0 1 -28 -575 )">
    <path d="M 12.125279 0.9877232  C 12.4375 0.672433  12.8624442 0.497488799999999  13.3125 0.497488799999999  C 14.2424665 0.497488799999999  15 1.2474888  15 2.1699219  C 15 2.6149554  14.8250558 3.0348772  14.5075335 3.3523996  L 6.0424107 11.5100446  C 5.7251674 11.827567  5.2999442 12  4.8501674 12  C 4.4003906 12  3.9751674 11.8250558  3.6576451 11.5100446  L 0.8325893 8.702567  C 0.515067 8.3875558  0.3401228 7.9676339  0.3401228 7.5200893  C 0.3401228 6.5976563  1.0976562 5.8476563  2.0276228 5.8476563  C 2.4776786 5.8476563  2.9026228 6.0226004  3.2201451 6.3376116  L 4.5477121 7.6576451  L 4.8526786 7.9601004  L 5.1576451 7.6576451  L 12.125279 0.9877232  Z " fill-rule="nonzero" fill="#ffb42d" stroke="none" transform="matrix(1 0 0 1 28 575 )" />
  </g>
</svg>