<?xml version="1.0" encoding="utf-8"?>
<svg version="1.1" xmlns:xlink="http://www.w3.org/1999/xlink" width="15px" height="15px" xmlns="http://www.w3.org/2000/svg">
  <g transform="matrix(1 0 0 1 -1122 -27 )">
    <path d="M 13.91455078125 13.91455078125  C 14.11962890625 13.70947265625  14.11962890625 13.3740234375  13.91455078125 13.1689453125  L 12.09814453125 11.35107421875  C 12.51123046875 10.86328125  12.8466796875 10.31982421875  13.09716796875 9.72802734375  C 13.4267578125 8.947265625  13.59521484375 8.1181640625  13.59521484375 7.26416015625  C 13.59521484375 6.41015625  13.42822265625 5.5810546875  13.09716796875 4.80029296875  C 12.77783203125 4.0458984375  12.322265625 3.37060546875  11.74072265625 2.7890625  C 11.1591796875 2.20751953125  10.48388671875 1.751953125  9.7294921875 1.4326171875  C 8.94873046875 1.1044921875  8.11962890625 0.9375  7.265625 0.9375  C 6.41162109375 0.9375  5.58251953125 1.1044921875  4.8017578125 1.435546875  C 4.04736328125 1.7548828125  3.3720703125 2.21044921875  2.79052734375 2.7919921875  C 2.208984375 3.37353515625  1.75341796875 4.048828125  1.43408203125 4.80322265625  C 1.1044921875 5.58251953125  0.9375 6.41162109375  0.9375 7.265625  C 0.9375 8.11962890625  1.1044921875 8.94873046875  1.435546875 9.7294921875  C 1.7548828125 10.48388671875  2.21044921875 11.1591796875  2.7919921875 11.74072265625  C 3.37353515625 12.322265625  4.048828125 12.77783203125  4.80322265625 13.09716796875  C 5.583984375 13.4267578125  6.4130859375 13.59521484375  7.26708984375 13.59521484375  C 8.12109375 13.59521484375  8.9501953125 13.42822265625  9.73095703125 13.09716796875  C 10.32275390625 12.8466796875  10.8662109375 12.51123046875  11.35400390625 12.09814453125  L 13.1689453125 13.91455078125  C 13.3740234375 14.11962890625  13.70947265625 14.11962890625  13.91455078125 13.91455078125  Z M 12.5390625 7.265625  C 12.5390625 10.177734375  10.177734375 12.5390625  7.265625 12.5390625  C 4.353515625 12.5390625  1.9921875 10.177734375  1.9921875 7.265625  C 1.9921875 4.353515625  4.353515625 1.9921875  7.265625 1.9921875  C 10.177734375 1.9921875  12.5390625 4.353515625  12.5390625 7.265625  Z " fill-rule="nonzero" fill="#ffffff" stroke="none" transform="matrix(1 0 0 1 1122 27 )" />
  </g>
</svg>