<?xml version="1.0" encoding="utf-8"?>
<svg version="1.1" xmlns:xlink="http://www.w3.org/1999/xlink" width="6px" height="6px" xmlns="http://www.w3.org/2000/svg">
  <g transform="matrix(1 0 0 1 -1126 -31 )">
    <path d="M 5.9609375 3.265625  C 5.9609375 2.9755859375  5.7236328125 2.73828125  5.43359375 2.73828125  L 3.79296875 2.73828125  L 3.79296875 1.09765625  C 3.79296875 0.8076171875  3.5556640625 0.5703125  3.265625 0.5703125  C 2.9755859375 0.5703125  2.73828125 0.8076171875  2.73828125 1.09765625  L 2.73828125 2.73828125  L 1.09765625 2.73828125  C 0.8076171875 2.73828125  0.5703125 2.9755859375  0.5703125 3.265625  C 0.5703125 3.5556640625  0.8076171875 3.79296875  1.09765625 3.79296875  L 2.73828125 3.79296875  L 2.73828125 5.43359375  C 2.73828125 5.7236328125  2.9755859375 5.9609375  3.265625 5.9609375  C 3.5556640625 5.9609375  3.79296875 5.7236328125  3.79296875 5.43359375  L 3.79296875 3.79296875  L 5.43359375 3.79296875  C 5.7236328125 3.79296875  5.9609375 3.5556640625  5.9609375 3.265625  Z " fill-rule="nonzero" fill="#ffffff" stroke="none" transform="matrix(1 0 0 1 1126 31 )" />
  </g>
</svg>