<?xml version="1.0" encoding="utf-8"?>
<svg version="1.1" xmlns:xlink="http://www.w3.org/1999/xlink" width="11px" height="13px" xmlns="http://www.w3.org/2000/svg">
  <g transform="matrix(1 0 0 1 -1125 -55 )">
    <path d="M 4.4072265625 8.88330078125  L 3.7744140625 10.24267578125  C 3.76708984375 10.23974609375  3.759765625 10.23828125  3.75244140625 10.23388671875  C 1.67529296875 9.265625  0.77294921875 6.787109375  1.7412109375 4.7099609375  C 2.2802734375 3.55419921875  3.28662109375 2.76318359375  4.43212890625 2.45556640625  L 3.91796875 1.4814453125  C 2.57177734375 1.91064453125  1.4013671875 2.873046875  0.75830078125 4.25146484375  C -0.4619140625 6.87060546875  0.6748046875 9.9951171875  3.2939453125 11.216796875  L 3.31591796875 11.2255859375  L 2.64208984375 12.669921875  L 6.02294921875 11.9404296875  L 4.4072265625 8.88330078125  Z M 10.2578125 8.6796875  C 11.4794921875 6.0634765625  10.3427734375 2.93896484375  7.7236328125 1.71728515625  L 8.3681640625 0.3359375  L 4.9873046875 1.0654296875  L 6.6015625 4.1240234375  L 7.26513671875 2.7001953125  C 9.34228515625 3.66845703125  10.2431640625 6.1455078125  9.27490234375 8.22265625  C 8.72998046875 9.3916015625  7.7060546875 10.1884765625  6.54443359375 10.48876953125  L 7.05859375 11.462890625  C 8.4208984375 11.03955078125  9.60888671875 10.0712890625  10.2578125 8.6796875  Z " fill-rule="nonzero" fill="#ffffff" stroke="none" transform="matrix(1 0 0 1 1125 55 )" />
  </g>
</svg>