<?xml version="1.0" encoding="utf-8"?>
<svg version="1.1" xmlns:xlink="http://www.w3.org/1999/xlink" width="12px" height="12px" xmlns="http://www.w3.org/2000/svg">
  <g transform="matrix(1 0 0 1 -246 -92 )">
    <path d="M 1.91666666210938 8.26916666210937  L 2.7415 8.26916666210938  L 8.65766666210937 2.353  L 7.83283333789062 1.52816666210938  L 1.91666666210938 7.44433333789062  L 1.91666666210938 8.26916666210937  Z M 9.8955 2.76541666210937  L 3.22508333789063 9.43583333789063  L 0.75 9.43583333789063  L 0.75 6.96075  L 7.42041666210937 0.290333337890625  C 7.64820824370636 0.0626105400081367  8.01745841840301 0.0626105400081372  8.24525 0.290333337890625  L 9.8955 1.94058333789062  C 10.1232227887707 2.16837491792218  10.1232227887707 2.53762508207782  9.8955 2.76541666210937  Z M 0.75 11.7691666621094  L 0.75 10.6025  L 11.25 10.6025  L 11.25 11.7691666621094  L 0.75 11.7691666621094  Z " fill-rule="nonzero" fill="#ffffff" stroke="none" transform="matrix(1 0 0 1 246 92 )" />
  </g>
</svg>