<?xml version="1.0" encoding="utf-8"?>
<svg version="1.1" xmlns:xlink="http://www.w3.org/1999/xlink" width="14px" height="14px" xmlns="http://www.w3.org/2000/svg">
  <g transform="matrix(1 0 0 1 -25 -90 )">
    <path d="M 6.80828488372093 12.2836046511628  C 9.86780593207499 12.2836046511628  12.3480377906977 9.80337279254011  12.3480377906977 6.74385174418605  C 12.3480377906977 3.68433069583198  9.86780593207499 1.2040988372093  6.80828488372093 1.2040988372093  C 3.74876383536687 1.2040988372093  1.26853197674419 3.68433069583199  1.26853197674419 6.74385174418605  C 1.26853197674419 9.80337279254011  3.74876383536687 12.2836046511628  6.80828488372093 12.2836046511628  Z M 6.80828488372093 13.4284156976744  C 3.11650215294067 13.4284156976744  0.123720930232557 10.4356344749663  0.123720930232557 6.74385174418605  C 0.123720930232557 3.05206901340578  3.11650215294067 0.0592877906976726  6.80828488372093 0.0592877906976726  C 10.5000676145012 0.0592877906976726  13.4928488372093 3.05206901340578  13.4928488372093 6.74385174418605  C 13.4928488372093 10.4356344749663  10.5000676145012 13.4284156976744  6.80828488372093 13.4284156976744  Z " fill-rule="nonzero" fill="#ffffff" stroke="none" transform="matrix(1 0 0 1 25 90 )" />
  </g>
</svg>