<?xml version="1.0" encoding="utf-8"?>
<svg version="1.1" xmlns:xlink="http://www.w3.org/1999/xlink" width="18px" height="18px" xmlns="http://www.w3.org/2000/svg">
  <g transform="matrix(1 0 0 1 -471 -11 )">
    <path d="M 5.5 0.77  C 6.59333333333333 0.296666666666664  7.76 0.0599999999999978  9 0.0600000000000001  C 10.24 0.0600000000000001  11.4033333333333 0.296666666666666  12.49 0.77  C 13.5766666666667 1.24333333333333  14.5233333333333 1.88333333333333  15.33 2.69  C 16.1366666666667 3.49666666666667  16.7766666666667 4.44666666666667  17.25 5.54  C 17.7233333333333 6.63333333333333  17.96 7.8  17.96 9.04  C 17.96 10.28  17.7233333333333 11.4433333333333  17.25 12.53  C 16.7766666666667 13.6166666666667  16.1366666666667 14.5633333333333  15.33 15.37  C 14.5233333333333 16.1766666666667  13.5766666666667 16.8166666666667  12.49 17.29  C 11.4033333333333 17.7633333333333  10.24 18  9 18  C 7.76 18  6.59333333333333 17.7633333333333  5.5 17.29  C 4.40666666666667 16.8166666666667  3.45666666666667 16.1766666666667  2.65 15.37  C 1.84333333333333 14.5633333333333  1.20333333333333 13.6166666666667  0.73 12.53  C 0.256666666666667 11.4433333333333  0.02 10.28  0.0200000000000005 9.04  C 0.0200000000000011 7.8  0.256666666666668 6.63333333333334  0.73 5.54  C 1.20333333333333 4.44666666666667  1.84333333333333 3.49666666666667  2.65 2.69  C 3.45666666666667 1.88333333333334  4.40666666666667 1.24333333333334  5.5 0.77  Z M 10.1 14.48  L 10.08 7.8  C 10.08 7.48  9.97666666666667 7.21  9.77 6.99  C 9.56333333333334 6.77  9.30666666666667 6.66  9 6.66  C 8.69333333333333 6.66  8.43333333333333 6.77  8.22 6.99  C 8.00666666666667 7.21  7.9 7.48  7.9 7.8  L 7.9 14.5  C 7.9 14.82  8.00666666666667 15.0766666666667  8.22 15.27  C 8.43333333333334 15.4633333333333  8.69333333333333 15.56  9 15.56  C 9.30666666666667 15.56  9.56666666666667 15.46  9.78 15.26  C 9.99333333333334 15.06  10.1 14.8  10.1 14.48  Z M 8 4.91  C 8.28 5.18333333333333  8.61333333333334 5.32  9 5.32  C 9.38666666666667 5.32  9.71666666666667 5.18333333333333  9.99 4.91  C 10.2633333333333 4.63666666666667  10.4 4.30666666666667  10.4 3.92  C 10.4 3.53333333333333  10.2633333333333 3.20333333333333  9.99 2.93  C 9.71666666666667 2.65666666666667  9.38666666666667 2.52  9 2.52  C 8.61333333333333 2.52  8.28 2.65666666666667  8 2.93  C 7.72 3.20333333333333  7.58 3.53333333333333  7.58 3.92  C 7.58 4.30666666666667  7.72 4.63666666666667  8 4.91  Z " fill-rule="nonzero" fill="#ff8a00" stroke="none" transform="matrix(1 0 0 1 471 11 )" />
  </g>
</svg>