<?xml version="1.0" encoding="utf-8"?>
<svg version="1.1" xmlns:xlink="http://www.w3.org/1999/xlink" width="100px" height="100px" xmlns="http://www.w3.org/2000/svg">
  <g transform="matrix(1 0 0 1 -20 -135 )">
    <path d="M 20 135  L 120 135  L 120 235  L 20 235  L 20 135  " fill-rule="nonzero" fill="#cccccc" stroke="none" />
    <path d="M 27 142  L 113 142  L 113 228  L 27 228  L 27 142  " fill-rule="nonzero" fill="#ffffff" stroke="none" />
    <path d="M 79.5 165  C 75.3 165  72 161.7  72 157.5  C 72 153.3  75.3 150  79.5 150  C 83.7 150  87 153.3  87 157.5  C 87 161.7  83.7 165  79.5 165  " fill-rule="nonzero" fill="#cccccc" stroke="none" />
    <path d="M 30 226  L 30 181.45  L 50.25 161.2  L 78.6 177.4  L 94.8 173.35  L 111 177.4  L 111 226  L 30 226  " fill-rule="nonzero" fill="#169bd5" stroke="none" />
  </g>
</svg>