<?xml version="1.0" encoding="utf-8"?>
<svg version="1.1" xmlns:xlink="http://www.w3.org/1999/xlink" width="20px" height="20px" xmlns="http://www.w3.org/2000/svg">
  <g transform="matrix(1 0 0 1 -490 -20 )">
    <path d="M 20 10  C 20 4.46153845703125  15.5384615429687 0  10 0  C 4.46153845703125 0  0 4.46153845703125  0 10  C 0 15.5384615429687  4.46153845703125 20  10 20  C 15.5384615429687 20  20 15.5384615429687  20 10  Z M 15.7692307617188 7.384615390625  C 15.7692307617188 7.4615384765625  15.7692307617188 7.4615384765625  15.7692307617187 7.384615390625  L 9.23076923828125 13.8461538476563  C 8.84615384765625 14.2307692382813  8.30769232421875 14.2307692382813  7.9230769140625 13.8461538476563  L 4.23076923828125 10.1538461523437  C 3.84615384765625 9.76923076171875  3.84615384765625 9.23076923828125  4.23076923828125 8.84615384765625  C 4.61538462890625 8.46153845703125  5.15384615234375 8.46153845703125  5.53846154296875 8.84615384765625  L 8.615384609375 11.9230769140625  L 14.4615384570313 6.15384615234375  C 14.8461538476563 5.76923076171875  15.3846153710938 5.76923076171875  15.7692307617188 6.15384615234375  C 16.0769230664063 6.46153845703125  16.1538461523438 7.07692306640625  15.7692307617188 7.384615390625  Z " fill-rule="nonzero" fill="#70b603" stroke="none" transform="matrix(1 0 0 1 490 20 )" />
  </g>
</svg>